# xmcd
#
# Track frame offsets:
#	150
#	22154
#	47685
#	65487
#	78647
#	102769
#	123497
#	161808
#	191260
#	206291
#	228143
#	258568
#	285105
#	328482
#
# Disc length: 4687 seconds
#
# Revision: 2
# Processed by: cddbd v1.5.1PL0 Copyright (c) Steve Scherf et al.
# Submitted via: AudioConverter v4.5 Copyright (c) AC Productions Ltd
#
DISCID=c1124d0e
DTITLE=Various Artist - Classic Jazz - Jazz Grooves - Disc 2
DYEAR=2004
DGENRE=Jazz
TTITLE0=Ronnie Laws - Always There
TTITLE1=Donald Byrd - Street Lady
TTITLE2=Jimmy McGriff - All About My Girl
TTITLE3=Herbie Mann - Memphis Underground
TTITLE4=Billy Cobham - The Pleasant Pheasant
TTITLE5=Roy Ayers - Evolution
TTITLE6=Ramsey Lewis With Earth, Wind and Fire - Sun Goddess
TTITLE7=Bobbi Humphrey - Chicago Damn
TTITLE8=Norman Connors and The Starship Orchestra - Captain Connors
TTITLE9=Eddie Henderson - Inside You
TTITLE10=Herbie Hancock - Ready Or Not
TTITLE11=Brecker Brothers - Some Skunk Funk
TTITLE12=Grover Washington Jr - Sausalito
TTITLE13=Stanley Clarke - Quiet Afternoon
EXTD=YEAR: 2004
EXTT0=
EXTT1=
EXTT2=
EXTT3=
EXTT4=
EXTT5=
EXTT6=
EXTT7=
EXTT8=
EXTT9=
EXTT10=
EXTT11=
EXTT12=
EXTT13=
PLAYORDER=
